<svg width="280" height="92" viewBox="0 0 280 92" fill="none" xmlns="http://www.w3.org/2000/svg">
  <rect x="2" y="2" width="276" height="88" rx="22" fill="#FFFDF8"/>
  <rect x="2" y="2" width="276" height="88" rx="22" stroke="#D5D0C5" stroke-width="2"/>
  <rect x="18" y="17" width="58" height="58" rx="18" fill="#1D6B52"/>
  <path d="M36 31H41.5V61H36V31Z" fill="#FFFDF8"/>
  <path d="M33.5 24H44V28.5H33.5V24Z" fill="#E7B46A"/>
  <path d="M95 57.5C95 48.5 101.7 43 111.2 43C115.7 43 119.8 44.4 122.9 47.3L119.5 51.1C117.4 49.2 114.7 48.1 111.4 48.1C105.8 48.1 101.7 51.8 101.7 57.4C101.7 62.9 105.9 66.6 111.6 66.6C115.1 66.6 117.9 65.5 120 63.4L123.4 67.2C120.4 70.5 115.9 72 111.2 72C101.7 72 95 66.5 95 57.5Z" fill="#1F2A24"/>
  <path d="M141 43.6H147.1V52.8L157.1 43.6H164.8L153.1 54.1L165.6 71.4H158.2L149.1 58.7L147.1 60.5V71.4H141V43.6Z" fill="#1F2A24"/>
  <path d="M180.9 43.6H187V54.5H188.8L198.1 43.6H205.7L194.5 56.3L206.5 71.4H198.7L190 60.1H187V71.4H180.9V43.6Z" fill="#1F2A24"/>
  <path d="M225.9 43.6H232V54.2H244.4V43.6H250.5V71.4H244.4V59.5H232V71.4H225.9V43.6Z" fill="#1F2A24"/>
  <text x="94" y="30" fill="#5F6C63" font-family="Segoe UI, Tahoma, sans-serif" font-size="11" font-weight="700" letter-spacing="2.2">ІСТОРІЇ УКРАЇНСЬКОЮ</text>
</svg>
